<?xml version="1.0" encoding="UTF-8"?>
<svg width="512px" height="101px" viewBox="0 0 512 101" version="1.1" xmlns="http://www.w3.org/2000/svg" xmlns:xlink="http://www.w3.org/1999/xlink">
    <!-- Generator: Sketch 49.2 (51160) - http://www.bohemiancoding.com/sketch -->
    <title>MBA logo/MBA_logo</title>
    <desc>Created with Sketch.</desc>
    <defs>
        <polygon id="path-1" points="0.227211029 0.24010798 21.7838227 0.24010798 21.7838227 34.5921978 0.227211029 34.5921978"></polygon>
        <polygon id="path-3" points="0.175027868 0.242802993 31.5759299 0.242802993 31.5759299 46.4352411 0.175027868 46.4352411"></polygon>
        <polygon id="path-5" points="0 0.157570075 132.826136 0.157570075 132.826136 93.14759 0 93.14759"></polygon>
    </defs>
    <g id="Page-1" stroke="none" stroke-width="1" fill="none" fill-rule="evenodd">
        <g id="Desktop-HD" transform="translate(-177.000000, -157.000000)">
            <g id="MBA-logo/MBA_logo" transform="translate(177.000000, 157.000000)">
                <path d="M190.205151,92.1209666 C189.51946,91.9864678 188.913177,91.7597845 188.393362,91.4386499 C187.876572,91.1144928 187.46793,90.669186 187.16189,90.1107895 C186.862656,89.5496224 186.710896,88.8592459 186.710896,88.0371411 C186.710896,87.1782633 186.862656,86.4614404 187.16189,85.9055626 C187.46793,85.3469142 187.867497,84.8832209 188.364371,84.5144828 C188.857717,84.1482633 189.440303,83.8558419 190.105071,83.6450264 C190.779922,83.4261511 191.455026,83.2470713 192.151306,83.1208843 C192.884391,82.9941935 193.616216,82.8861411 194.353335,82.7992459 C195.081126,82.7148693 195.782699,82.6042983 196.45503,82.4697995 C197.12484,82.34059 197.752299,82.1854379 198.332616,81.9982983 C198.915454,81.7952908 199.397959,81.5293157 199.78845,81.1814828 L199.78845,84.6094379 C199.78845,85.1282908 199.732738,85.8186673 199.624842,86.6828344 C199.516694,87.5417122 199.227796,88.3900115 198.751846,89.2385626 C198.277155,90.0737646 197.54407,90.8036848 196.549817,91.4069142 C195.557077,92.0076249 194.152921,92.3081062 192.343653,92.3081062 C191.610567,92.3081062 190.894625,92.2395975 190.205151,92.1209666 M200.17869,94.3104753 C200.220789,94.8769317 200.294652,95.4250015 200.402548,95.967782 C200.510695,96.499984 200.650607,97.032186 200.825811,97.5460015 L210.149455,97.5460015 C209.715603,96.8581436 209.413596,95.8254753 209.243434,94.4422035 C209.06949,93.0642209 208.978485,91.6202484 208.978485,90.1107895 L208.978485,72.7073057 C208.978485,70.6759716 208.530264,69.0544304 207.624496,67.8253032 C206.715954,66.5949167 205.550278,65.6383132 204.123686,64.9469292 C202.702388,64.2631012 201.127818,63.7928594 199.397959,63.5568569 C197.673394,63.3211062 195.964458,63.1999566 194.286026,63.1999566 C192.428104,63.1999566 190.587576,63.3883556 188.75209,63.7545751 C186.916856,64.1157571 185.263129,64.7280539 183.796958,65.5990214 C182.328015,66.4591586 181.120492,67.59862 180.171111,69.0214354 C179.22173,70.4414803 178.680992,72.2292559 178.55066,74.3950888 L187.747249,74.3950888 C187.916151,72.5823781 188.525206,71.2807122 189.561559,70.5074703 C190.59287,69.7274279 192.022235,69.3455925 193.831251,69.3455925 C194.656602,69.3455925 195.417417,69.3982334 196.13336,69.5075451 C196.848043,69.6155975 197.466174,69.8329616 198.006912,70.1558594 C198.548911,70.4772459 198.98125,70.9343905 199.306953,71.5111736 C199.624842,72.0909791 199.78845,72.8788294 199.78845,73.8747247 C199.83055,74.8217571 199.550979,75.5398394 198.944444,76.0430763 C198.341943,76.5385052 197.522894,76.9097621 196.484021,77.1714554 C195.455483,77.432393 194.260817,77.6273406 192.921197,77.751009 C191.583089,77.8827372 190.231369,78.054009 188.848389,78.2701137 C187.46793,78.4862185 186.096547,78.7814105 184.738524,79.1501486 C183.375207,79.5110788 182.167432,80.0619192 181.109904,80.7915875 C180.052375,81.5293157 179.189967,82.5068244 178.520157,83.737211 C177.849086,84.9623082 177.518089,86.5299491 177.518089,88.4270364 C177.518089,90.1500813 177.808247,91.6414055 178.392346,92.8876599 C178.973671,94.1444928 179.782132,95.177413 180.819745,95.9939766 C181.853577,96.8133107 183.063873,97.4195626 184.445845,97.809206 C185.826051,98.1940638 187.316423,98.3864928 188.913177,98.3864928 C190.98563,98.3864928 193.010942,98.0832409 195.001969,97.482782 C196.982408,96.8818195 198.708486,95.8254753 200.17869,94.3104753" id="Fill-1" fill="#2A2D2C"></path>
                <path d="M236.240607,84.7409646 C235.984733,86.0373411 235.54836,87.1886404 234.94838,88.2004035 C234.340585,89.2146853 233.532124,90.0262115 232.516947,90.6244035 C231.504291,91.2329222 230.242568,91.5334035 228.730265,91.5334035 C227.302161,91.5334035 226.085058,91.2223436 225.073914,90.5901491 C224.055965,89.962992 223.213471,89.1517177 222.546182,88.1346653 C221.875112,87.1229022 221.389834,85.9713511 221.088079,84.6752264 C220.787332,83.3816204 220.637085,82.0877626 220.637085,80.7916379 C220.637085,79.4136554 220.776744,78.0883137 221.056315,76.8151092 C221.335634,75.5398898 221.78814,74.4160444 222.417111,73.4226678 C223.042048,72.4255132 223.872693,71.6311142 224.909046,71.0316628 C225.946911,70.4309521 227.216449,70.1226628 228.730265,70.1226628 C230.242568,70.1226628 231.492443,70.4309521 232.487957,71.0316628 C233.479437,71.6311142 234.287645,72.4202239 234.911575,73.3886653 C235.533739,74.3593736 235.984733,75.4751591 236.240607,76.7491192 C236.496481,78.0225756 236.629585,79.3504359 236.629585,80.7281666 C236.629585,82.1089197 236.496481,83.4448399 236.240607,84.7409646 Z M236.303882,51.3628574 L236.303882,68.1744459 L236.174558,68.1744459 C235.135685,66.5370369 233.722202,65.3038798 231.934109,64.460618 C230.143496,63.6203786 228.255323,63.200007 226.271102,63.200007 C223.806645,63.200007 221.648228,63.6846055 219.793079,64.6505282 C217.93667,65.6199771 216.395376,66.9032564 215.167685,68.5051516 C213.936213,70.1017576 213.011789,71.9434334 212.380297,74.037987 C211.757881,76.1247327 211.438984,78.2988773 211.438984,80.533219 C211.438984,82.867805 211.757881,85.1124733 212.380297,87.2649571 C213.011789,89.4204633 213.936213,91.3306479 215.167685,92.985184 C216.395376,94.64778 217.957845,95.9678324 219.859128,96.931992 C221.756376,97.9095007 223.959665,98.3865431 226.466222,98.3865431 C228.662956,98.3865431 230.639362,97.9858175 232.387876,97.1901591 C234.138911,96.3917302 235.54836,95.0877975 236.629585,93.2801242 L236.757396,93.2801242 L236.757396,97.5458 L245.498202,97.5458 L245.498202,53.2743012 C241.686058,53.0700344 238.657418,52.3033411 236.309176,51.3628574 L236.303882,51.3628574 Z" id="Fill-3" fill="#2A2D2C"></path>
                <polygon id="Fill-5" fill="#2A2D2C" points="262.848523 86.9410267 262.719452 86.9410267 255.662625 64.1077224 246.01605 64.1077224 257.476935 97.5457748 267.708616 97.5457748 279.037656 64.1077224 269.906863 64.1077224"></polygon>
                <path d="M287.194186,77.2372439 C287.235025,76.5937152 287.370651,75.855987 287.613416,75.0351416 C287.850635,74.2210968 288.259529,73.4425656 288.844888,72.7073561 C289.425205,71.9723985 290.20165,71.3598499 291.170694,70.8619022 C292.146545,70.365214 293.366168,70.1226628 294.833851,70.1226628 C297.075206,70.1226628 298.752378,70.7261441 299.850745,71.9328549 C300.945079,73.1423362 301.713962,74.906184 302.149073,77.2372439 L287.194186,77.2372439 Z M310.692995,75.6202364 C310.085199,73.2450993 309.106828,71.1371965 307.747545,69.2796529 C306.389522,67.4261392 304.650336,65.9547127 302.534019,64.8505132 C300.418962,63.7546254 297.940136,63.200007 295.093507,63.200007 C292.547372,63.200007 290.221566,63.654381 288.132979,64.5580918 C286.037838,65.4645731 284.235376,66.7027676 282.725593,68.2784683 C281.21329,69.8513985 280.047614,71.7195207 279.224784,73.8745232 C278.410021,76.0338075 277.997345,78.3623486 277.997345,80.8573761 C277.997345,83.4448399 278.396912,85.8187177 279.195793,87.9712015 C279.993666,90.1345157 281.127579,91.9865182 282.597782,93.5410618 C284.059919,95.0877975 285.854566,96.2839297 287.969371,97.1322289 C290.082915,97.9727202 292.453845,98.3865431 295.093507,98.3865431 C298.889516,98.3865431 302.125377,97.5248948 304.803356,95.801598 C307.478562,94.0757825 309.464043,91.2039571 310.756522,87.199219 L302.665863,87.199219 C302.362596,88.2371766 301.541278,89.2146853 300.202919,90.1423237 C298.868593,91.0697102 297.267553,91.5334035 295.409883,91.5334035 C292.825682,91.5334035 290.835915,90.8614135 289.459238,89.5285157 C288.077518,88.1898249 287.321997,86.0373411 287.194186,83.0574633 L311.341881,83.0574633 C311.513304,80.4727701 311.297008,77.9908399 310.692995,75.6202364 Z" id="Fill-7" fill="#2A2D2C"></path>
                <path d="M342.485774,66.978087 C341.578493,65.7965633 340.338954,64.8716955 338.762115,64.2024761 C337.185276,63.530486 335.167779,63.2000322 332.702062,63.2000322 C330.763722,63.2000322 328.866474,63.641309 327.008551,64.5278925 C325.152142,65.4051569 323.642359,66.822683 322.475423,68.7646032 L322.280303,68.7646032 L322.280303,64.1077728 L313.543783,64.1077728 L313.543783,97.5458252 L322.73533,97.5458252 L322.73533,80.01691 C322.73533,76.608097 323.295732,74.1669698 324.419057,72.6731269 C325.53986,71.1898626 327.355431,70.4415559 329.859466,70.4415559 C332.059982,70.4415559 333.588167,71.1213539 334.453097,72.4809499 C335.316766,73.8405459 335.747844,75.8968152 335.747844,78.6600845 L335.747844,97.5458252 L344.945946,97.5458252 L344.945946,76.9823763 C344.945946,74.9062092 344.758893,73.0184411 344.397392,71.3150421 C344.024548,69.6156731 343.38751,68.1679224 342.485774,66.978087" id="Fill-9" fill="#2A2D2C"></path>
                <path d="M390.456721,81.6346479 C390.456721,85.0439646 389.894806,87.4891217 388.774255,88.9776753 C387.650931,90.4662289 385.837881,91.2039571 383.332585,91.2039571 C381.132069,91.2039571 379.59985,90.532219 378.734921,89.1698524 C377.872512,87.8105082 377.442694,85.7554983 377.442694,82.9942439 L377.442694,64.1077476 L369.745048,64.1077476 L368.249887,64.1077476 L360.354348,64.1077476 L360.354348,54.0772638 L351.156498,54.0772638 L351.156498,64.1077476 L345.592059,64.1077476 C345.592059,64.1077476 347.558129,67.3772763 347.857363,70.2518723 L351.156498,70.2518723 L351.156498,89.9788599 C351.156498,91.6651317 351.441111,93.0219571 351.997479,94.049588 C352.55662,95.0877975 353.32399,95.8912638 354.298328,96.4526828 C355.267624,97.00579 356.390948,97.382588 357.661999,97.5775357 C358.938344,97.7777726 360.286031,97.8727277 361.709849,97.8727277 C362.61713,97.8727277 363.548108,97.8488 364.494716,97.8092564 C365.444097,97.7646753 366.309026,97.6830693 367.084211,97.5458 L367.084211,90.4347451 C366.651872,90.5188698 366.198357,90.5851117 365.726188,90.6244035 C365.250237,90.6692364 364.753111,90.6903935 364.236321,90.6903935 C362.680406,90.6903935 361.649347,90.4347451 361.132305,89.9156404 C360.608961,89.394017 360.354348,88.3638673 360.354348,86.806805 L360.354348,70.2518723 L368.249887,70.2518723 L368.249887,84.6752264 C368.249887,86.7461042 368.431898,88.632613 368.798188,90.3372713 C369.167504,92.0419297 369.803029,93.4831317 370.705016,94.6661666 C371.617339,95.8570095 372.854105,96.7685282 374.431196,97.4193611 C376.004254,98.0649047 378.028305,98.3865431 380.483183,98.3865431 C382.429337,98.3865431 384.321544,97.9596229 386.183248,97.1004933 C388.039909,96.2312888 389.54944,94.8321491 390.716376,92.8877102 L390.910235,92.8877102 L390.910235,97.5458 L399.647007,97.5458 L399.647007,64.1077476 L390.456721,64.1077476 L390.456721,81.6346479 Z" id="Fill-11" fill="#2A2D2C"></path>
                <path d="M424.965596,63.5227284 C424.229738,63.311913 423.561189,63.2000825 422.958688,63.2000825 C421.790491,63.2000825 420.667166,63.3726137 419.591235,63.7164167 C418.512531,64.0614791 417.496094,64.5475888 416.549234,65.1719753 C415.598593,65.7966137 414.753579,66.5565065 414.021502,67.431504 C413.288417,68.3193469 412.704318,69.2797284 412.276013,70.317686 L412.145429,70.317686 L412.145429,64.1075713 L403.404876,64.1075713 L403.404876,97.5458756 L412.600204,97.5458756 L412.600204,82.4699254 C412.600204,80.9680227 412.749191,79.5638456 413.051198,78.2699878 C413.356986,76.9824267 413.862179,75.8427135 414.570055,74.8757833 C415.284738,73.9023045 416.22101,73.1421599 417.39198,72.5822521 C418.512531,72.0356935 419.877108,71.7656885 421.481929,71.7457908 C422.191318,70.2862022 423.331785,68.2626761 424.965596,66.3550102 L424.965596,63.5227284 Z" id="Fill-13" fill="#2A2D2C"></path>
                <path d="M431.763852,77.2372439 C431.804691,76.5937152 431.94309,75.855987 432.184343,75.0351416 C432.423074,74.2210968 432.827935,73.4425656 433.416067,72.7073561 C433.992098,71.9723985 434.772829,71.3598499 435.741873,70.8619022 C436.717723,70.365214 437.932053,70.1226628 439.406038,70.1226628 C441.645125,70.1226628 443.318011,70.7261441 444.419403,71.9328549 C445.518779,73.1423362 446.291443,74.906184 446.71874,77.2372439 L431.763852,77.2372439 Z M452.318472,69.2796529 C450.960449,67.4261392 449.218742,65.9547127 447.104945,64.8505132 C444.991401,63.7546254 442.507281,63.200007 439.664685,63.200007 C437.114517,63.200007 434.793753,63.654381 432.702645,64.5580918 C430.958164,65.3116878 429.4325,66.3090943 428.097166,67.5223536 C427.82541,67.7699421 427.549873,68.0122414 427.295259,68.2784683 C425.871189,69.7617327 424.766519,71.5112239 423.955537,73.5085556 C423.906883,73.6322239 423.847389,73.7480843 423.798484,73.8745232 C422.979687,76.0338075 422.568524,78.3623486 422.568524,80.8573761 C422.568524,83.4448399 422.966578,85.8187177 423.765711,87.9712015 C424.564593,90.1345157 425.697245,91.9865182 427.163415,93.5410618 C428.634879,95.0877975 430.425493,96.2839297 432.539037,97.1322289 C434.654094,97.9727202 437.024772,98.3865431 439.664685,98.3865431 C443.456662,98.3865431 446.696303,97.5248948 449.374283,95.801598 C452.048228,94.0757825 454.032701,91.2039571 455.331482,87.199219 L447.235781,87.199219 C446.935035,88.2371766 446.112205,89.2146853 444.772585,90.1423237 C443.443553,91.0697102 441.838732,91.5334035 439.986355,91.5334035 C437.391315,91.5334035 435.406842,90.8614135 434.029156,89.5285157 C432.649958,88.1898249 431.889142,86.0373411 431.763852,83.0574633 L455.911547,83.0574633 C456.081457,80.4727701 455.870708,77.9908399 455.264173,75.6202364 C454.661672,73.2450993 453.679519,71.1371965 452.318472,69.2796529 Z" id="Fill-15" fill="#2A2D2C"></path>
                <path d="M484.202181,80.2434673 C483.215743,79.5321855 482.076537,78.9604399 480.808259,78.5282304 C479.533175,78.0962728 478.226579,77.7353426 476.886707,77.4323426 C475.597506,77.1260683 474.315615,76.8520334 473.069774,76.5938663 C471.811832,76.3288988 470.705398,76.0430259 469.73106,75.7138314 C468.764789,75.3937042 467.976243,74.9733327 467.369709,74.4595172 C466.763174,73.9378938 466.465201,73.271193 466.465201,72.4493401 C466.465201,71.756193 466.639397,71.212405 466.984511,70.802612 C467.324836,70.3875297 467.750621,70.0794923 468.245226,69.860617 C468.73958,69.6485421 469.290906,69.5074948 469.892147,69.443016 C470.499942,69.3797965 471.061604,69.3455421 471.581167,69.3455421 C473.221281,69.3455421 474.645352,69.6591207 475.849346,70.2835072 C477.05687,70.9106643 477.729453,72.1080559 477.862558,73.8746743 L486.59933,73.8746743 C486.427907,71.8050559 485.897756,70.0870484 485.015684,68.7329935 C484.1321,67.3718863 483.01533,66.2865771 481.677222,65.4644723 C480.338863,64.6451382 478.821013,64.0615546 477.115103,63.7164923 C475.407428,63.3726893 473.651099,63.2001581 471.840822,63.2001581 C470.027773,63.2001581 468.253041,63.3646294 466.532509,63.6847566 C464.806432,64.0089137 463.252029,64.5700808 461.874091,65.3735471 C460.484304,66.1654274 459.37661,67.248218 458.535377,68.6367791 C457.691623,70.0147616 457.274914,71.78138 457.274914,73.9378938 C457.274914,75.4068015 457.570367,76.6452479 458.182195,77.6562554 C458.780663,78.6705372 459.582317,79.5110284 460.571276,80.1752105 C461.565529,80.8469486 462.695408,81.3922479 463.971753,81.7954923 C465.246837,82.2062928 466.549652,82.559415 467.889271,82.8677042 C471.169752,83.5553102 473.724962,84.2403975 475.56423,84.9332928 C477.394422,85.6236693 478.310778,86.6618788 478.310778,88.0370908 C478.310778,88.8591955 478.113138,89.5415122 477.729453,90.0737142 C477.340474,90.6112055 476.857717,91.0487042 476.269837,91.3726095 C475.691032,91.693996 475.040885,91.9287392 474.331497,92.0760833 C473.619588,92.2289686 472.93919,92.3080559 472.293077,92.3080559 C471.386047,92.3080559 470.510278,92.1974848 469.666524,91.9866693 C468.828064,91.7652753 468.084139,91.4385995 467.437017,90.9799436 C466.78561,90.5323701 466.262014,89.9472753 465.850851,89.2385122 C465.439184,88.5272304 465.233728,87.6736419 465.233728,86.682784 L456.494435,86.682784 C456.578634,88.9277042 457.087609,90.7930559 458.013293,92.2738015 C458.946792,93.7623551 460.128098,94.9637766 461.576117,95.8649686 C463.025145,96.7686793 464.672066,97.4195122 466.532509,97.8094075 C468.384885,98.1942653 470.283647,98.3864424 472.22728,98.3864424 C474.125789,98.3864424 475.990266,98.204592 477.824492,97.8411431 C479.658465,97.4721531 481.293285,96.8318988 482.720129,95.928188 C484.137394,95.0217067 485.292482,93.8308638 486.176066,92.3423102 C487.065953,90.8484673 487.505098,89.0065397 487.505098,86.8067042 C487.505098,85.2627392 487.204352,83.9532653 486.59933,82.9019586 C485.995316,81.8400733 485.193661,80.955001 484.202181,80.2434673" id="Fill-17" fill="#2A2D2C"></path>
                <path d="M356.338185,25.6739229 C356.645486,24.3808207 357.117403,23.2388406 357.763517,22.2492421 C358.40963,21.2525913 359.233721,20.470282 360.225201,19.8907284 C361.219454,19.303115 362.384878,19.0164865 363.723489,19.0164865 C365.103696,19.0164865 366.282733,19.303115 367.250516,19.8907284 C368.22082,20.470282 369.026508,21.2525913 369.681697,22.2492421 C370.328062,23.2388406 370.797206,24.3808207 371.104507,25.6739229 C371.402481,26.9682845 371.559534,28.3278805 371.559534,29.7511998 C371.559534,31.1311973 371.402481,32.4716511 371.104507,33.7647534 C370.797206,35.0596187 370.328062,36.1998357 369.681697,37.1889304 C369.026508,38.1835663 368.22082,38.9653718 367.250516,39.549711 C366.282733,40.1353095 365.103696,40.4252122 363.723489,40.4252122 C362.384878,40.4252122 361.219454,40.1353095 360.225201,39.549711 C359.233721,38.9653718 358.40963,38.1835663 357.763517,37.1889304 C357.117403,36.1998357 356.645486,35.0596187 356.338185,33.7647534 C356.037691,32.4716511 355.881898,31.1311973 355.881898,29.7511998 C355.881898,28.3278805 356.037691,26.9682845 356.338185,25.6739229 Z M355.75812,42.167903 L355.881898,42.167903 C356.881445,44.0249429 358.350388,45.345499 360.291249,46.1154666 C362.229589,46.893494 364.436659,47.2808706 366.894561,47.2808706 C368.579548,47.2808706 370.239578,46.9350526 371.875911,46.246691 C373.516277,45.5575738 374.993035,44.4984591 376.314,43.0751399 C377.629923,41.6528282 378.700561,39.8338207 379.516836,37.609302 C380.336893,35.3968731 380.748308,32.7502197 380.748308,29.6859653 C380.748308,26.6224666 380.336893,23.9868955 379.516836,21.763888 C378.700561,19.5446586 377.629923,17.7175913 376.314,16.2972945 C374.993035,14.8747309 373.516277,13.8168756 371.875911,13.1232247 C370.239578,12.4376337 368.579548,12.0870302 366.894561,12.0870302 C364.823117,12.0870302 362.828056,12.4915339 360.904338,13.2892072 C358.983141,14.0828506 357.461762,15.3474915 356.338185,17.0773369 L356.208862,17.0773369 L356.208862,0.251895511 L347.018827,0.251895511 L347.018827,46.43912 L355.75812,46.43912 L355.75812,42.167903 Z" id="Fill-19" fill="#2A2D2C"></path>
                <path d="M391.332289,23.9278067 C391.574802,23.11351 391.976889,22.3374975 392.562248,21.59851 C393.151893,20.870101 393.923044,20.2580561 394.896121,19.7573379 C395.870459,19.2601459 397.089075,19.0163354 398.556505,19.0163354 C400.7966,19.0163354 402.468478,19.615283 403.573652,20.8240087 C404.673279,22.0312232 405.438128,23.7985973 405.871727,26.1263828 L390.910286,26.1263828 C390.959192,25.4800835 391.094818,24.7516746 391.332289,23.9278067 M386.313882,42.427682 C387.781313,43.9802107 389.57722,45.1783579 391.693537,46.0253978 C393.801787,46.8631185 396.176499,47.2807195 398.811119,47.2807195 C402.608389,47.2807195 405.848031,46.4160486 408.520716,44.6935075 C411.201216,42.9664327 413.183168,40.1039264 414.480436,36.0911284 L406.387257,36.0911284 C406.08525,37.1237968 405.263932,38.1086097 403.928094,39.0299514 C402.589986,39.9628791 400.99172,40.425313 399.134049,40.425313 C396.548336,40.425313 394.558569,39.7618865 393.17685,38.4209289 C391.795131,37.0822382 391.047424,34.92648 390.910286,31.9506322 L415.062014,31.9506322 C415.23747,29.3631683 415.021175,26.8819938 414.417161,24.5093753 C413.808106,22.1367569 412.829734,20.0243204 411.474233,18.1748367 C410.109403,16.3157818 408.369208,14.843096 406.254152,13.7424227 C404.143129,12.6417494 401.661782,12.0871309 398.811119,12.0871309 C396.268765,12.0871309 393.942959,12.5450312 391.851852,13.4517643 C389.760492,14.3567344 387.95803,15.5914027 386.448247,17.1655923 C384.935944,18.7463304 383.771781,20.6106746 382.951723,22.7631584 C382.128893,24.9249613 381.720251,27.2489688 381.720251,29.7513005 C381.720251,32.3392681 382.119818,34.7103753 382.91996,36.8656297 C383.716572,39.024914 384.851493,40.8756571 386.313882,42.427682" id="Fill-21" fill="#2A2D2C"></path>
                <path d="M419.722979,19.1422706 L419.722979,38.8737918 C419.722979,40.5522556 420.00507,41.9098367 420.564212,42.9452756 C421.127134,43.9802107 421.893244,44.779899 422.861279,45.3455998 C423.831583,45.9007219 424.958941,46.2828092 426.228731,46.4757419 C427.506337,46.6706895 428.855284,46.7676596 430.279355,46.7676596 C431.18109,46.7676596 432.109295,46.7467544 433.061196,46.6991509 C434.008056,46.6563329 434.872986,46.568682 435.648422,46.4389688 L435.648422,39.3271584 C435.218352,39.4127943 434.767359,39.4772731 434.292921,39.5188317 C433.815457,39.560894 433.321104,39.5795324 432.80028,39.5795324 C431.246886,39.5795324 430.213307,39.3271584 429.696517,38.809313 C429.174181,38.2897045 428.918559,37.2542656 428.918559,35.7057668 L428.918559,19.1422706 L433.703528,19.1422706 L435.648422,19.1422706 L439.27427,19.1422706 L439.27427,38.8737918 C439.27427,40.5522556 439.557874,41.9098367 440.119536,42.9452756 C440.677165,43.9802107 441.444535,44.779899 442.416351,45.3455998 C443.389429,45.9007219 444.506199,46.2828092 445.785316,46.4757419 C447.058888,46.6706895 448.406575,46.7676596 449.831906,46.7676596 C450.738935,46.7676596 451.663359,46.7467544 452.611227,46.6991509 C453.559347,46.6563329 454.422764,46.568682 455.204755,46.4389688 L455.204755,39.3271584 C454.768383,39.4127943 454.314868,39.4772731 453.840178,39.5188317 C453.365488,39.560894 452.872395,39.5795324 452.356865,39.5795324 C450.80095,39.5795324 449.765858,39.3271584 449.250329,38.809313 C448.730766,38.2897045 448.472371,37.2542656 448.472371,35.7057668 L448.472371,19.1422706 L455.204755,19.1422706 L455.204755,12.9986496 L448.472371,12.9986496 L448.472371,2.97547007 L439.27427,2.97547007 L439.27427,12.9986496 L435.648422,12.9986496 L433.703528,12.9986496 L428.918559,12.9986496 L428.918559,2.97547007 L419.722979,2.97547007 L419.722979,12.9986496 L414.156019,12.9986496 L414.156019,13.2925823 C415.114727,14.5592382 416.640139,16.7960985 417.498514,19.1422706 L419.722979,19.1422706 Z" id="Fill-23" fill="#2A2D2C"></path>
                <path d="M463.944048,26.1263828 C463.98766,25.4800835 464.120765,24.7516746 464.362018,23.9278067 C464.599489,23.11351 465.008131,22.3374975 465.59475,21.59851 C466.176328,20.870101 466.951764,20.2580561 467.926102,19.7573379 C468.891365,19.2601459 470.113509,19.0163354 471.58094,19.0163354 C473.82532,19.0163354 475.497198,19.615283 476.598086,20.8240087 C477.701748,22.0312232 478.467857,23.7985973 478.896414,26.1263828 L463.944048,26.1263828 Z M484.497407,18.1748367 C483.139384,16.3157818 481.398937,14.843096 479.286654,13.7424227 C477.171849,12.6417494 474.69025,12.0871309 471.840848,12.0871309 C469.297234,12.0871309 466.971428,12.5450312 464.882841,13.4517643 C462.78896,14.3567344 460.987759,15.5914027 459.476968,17.1655923 C457.957858,18.7463304 456.794955,20.6106746 455.976158,22.7631584 C455.158622,24.9249613 454.751241,27.2489688 454.751241,29.7513005 C454.751241,32.3392681 455.14274,34.7103753 455.951201,36.8656297 C456.744789,39.024914 457.87618,40.8756571 459.346384,42.427682 C460.813815,43.9802107 462.603168,45.1783579 464.719485,46.0253978 C466.831768,46.8631185 469.209001,47.2807195 471.840848,47.2807195 C475.639631,47.2807195 478.876499,46.4160486 481.553218,44.6935075 C484.231197,42.9664327 486.21693,40.1039264 487.511678,36.0911284 L479.415977,36.0911284 C479.109937,37.1237968 478.293661,38.1086097 476.955302,39.0299514 C475.618455,39.9628791 474.017667,40.425313 472.163778,40.425313 C469.577056,40.425313 467.592584,39.7618865 466.209352,38.4209289 C464.828893,37.0822382 464.068078,34.92648 463.944048,31.9506322 L488.093003,31.9506322 C488.265939,29.3631683 488.049643,26.8819938 487.448403,24.5093753 C486.841868,22.1367569 485.854169,20.0243204 484.497407,18.1748367 Z" id="Fill-25" fill="#2A2D2C"></path>
                <g id="Group-29" transform="translate(490.067947, 11.846973)">
                    <mask id="mask-2" fill="white">
                        <use xlink:href="#path-1"></use>
                    </mask>
                    <g id="Clip-28"></g>
                    <path d="M19.778502,0.24010798 C18.6115655,0.24010798 17.493535,0.413898504 16.4107974,0.763242643 C15.3323454,1.11283865 14.3169166,1.59315536 13.370309,2.21426758 C12.4196679,2.84066908 11.5784351,3.59930249 10.8413164,4.48538229 C10.1069708,5.36869152 9.52539321,6.32781372 9.09683584,7.3617414 L8.96499143,7.3617414 L8.96499143,1.15187855 L0.227211029,1.15187855 L0.227211029,34.5921978 L9.41875805,34.5921978 L9.41875805,19.5205294 C9.41875805,18.0123299 9.56875313,16.6091603 9.87227258,15.3155544 C10.1727669,14.0277414 10.6819939,12.8915544 11.3939033,11.9218536 C12.1058127,10.9511454 13.0448575,10.1842002 14.2075084,9.62580374 C15.3757054,9.06136234 16.7959949,8.78203815 18.4809816,8.78203815 C19.0413834,8.78203815 19.6254818,8.81226259 20.2320165,8.88077132 C20.8319968,8.945502 21.3566015,9.02307805 21.7838984,9.10695087 L21.7838984,0.570058105 C21.0508132,0.352694015 20.3862972,0.24010798 19.778502,0.24010798" id="Fill-27" fill="#2A2D2C" mask="url(#mask-2)"></path>
                </g>
                <path d="M188.393488,27.0341234 C188.393488,25.3964626 188.630707,24.0706172 189.108171,23.0573429 C189.582861,22.0450761 190.155111,21.262515 190.824921,20.7277943 C191.491958,20.1915623 192.181683,19.821313 192.897626,19.6258616 C193.607014,19.4362032 194.175231,19.3339439 194.606561,19.3339439 C196.075253,19.3339439 197.189502,19.5883329 197.94225,20.0842656 C198.696511,20.5801983 199.23725,21.2375798 199.566735,22.0516247 C199.888405,22.8704551 200.070416,23.7688766 200.109994,24.7385773 C200.157388,25.7067668 200.178563,26.6908242 200.178563,27.6801708 L200.178563,46.4442581 L209.374144,46.4442581 L209.374144,27.8093803 C209.374144,26.7759564 209.448007,25.7515998 209.600775,24.7385773 C209.744468,23.7288292 210.050508,22.8223479 210.506544,22.0234152 C210.96031,21.2249863 211.586508,20.5801983 212.380348,20.0842656 C213.179229,19.5883329 214.228943,19.3339439 215.52243,19.3339439 C216.82121,19.3339439 217.842942,19.5540786 218.601236,19.986288 C219.352724,20.4187494 219.926235,20.9998142 220.312692,21.7302382 C220.700159,22.4614177 220.936117,23.3288591 221.026114,24.3189613 C221.110313,25.3070486 221.155186,26.3641484 221.155186,27.4872382 L221.155186,46.4442581 L229.919688,46.4442581 L230.349254,46.4442581 L230.349254,46.1498217 L230.349254,24.063313 C230.349254,21.9002506 230.048759,20.0610935 229.443485,18.5304776 C228.838463,16.997091 227.996978,15.7594002 226.916005,14.810101 C225.838561,13.8595424 224.547848,13.1674027 223.034284,12.7351933 C221.520468,12.3085249 219.878841,12.0924202 218.113185,12.0924202 C215.779564,12.0924202 213.760807,12.6528317 212.061199,13.7746621 C210.355036,14.9005224 209.004828,16.1893429 208.012088,17.6582506 C207.106067,15.5853579 205.777035,14.1388666 204.030034,13.3207918 C202.283032,12.5054875 200.349986,12.0924202 198.232409,12.0924202 C196.033153,12.0924202 194.081705,12.5679514 192.378063,13.5177544 C190.67064,14.464283 189.213545,15.8047369 188.008543,17.5224925 L187.876698,17.5224925 L187.876698,12.9986496 L179.200681,12.9986496 L179.200681,46.4442581 L188.393488,46.4442581 L188.393488,27.0341234 Z" id="Fill-30" fill="#2A2D2C"></path>
                <path d="M246.600401,47.280795 C248.542522,47.280795 250.441283,46.8506005 252.296432,45.9884484 C254.151582,45.1202514 255.662625,43.7266529 256.825528,41.7807027 L257.02342,41.7807027 L257.02342,46.4443337 L265.762461,46.4443337 L265.762461,12.9987252 L256.567133,12.9987252 L256.567133,30.5268848 C256.567133,33.9344384 256.007991,36.3808549 254.884667,37.8681491 C253.762603,39.3569546 251.949553,40.1037501 249.449551,40.1037501 C247.246514,40.1037501 245.712783,39.4247077 244.849366,38.0605781 C243.988218,36.7070269 243.555879,34.6459721 243.555879,31.8912663 L243.555879,12.9987252 L234.365593,12.9987252 L234.365593,33.5694783 C234.365593,35.6390968 234.542309,37.5283761 234.911373,39.2310195 C235.276655,40.9356778 235.916214,42.3728499 236.819462,43.5599147 C237.728003,44.747987 238.96729,45.6683212 240.544381,46.3138648 C241.026886,46.5108274 241.562079,46.6674908 242.127775,46.8040045 C243.2632,47.0800544 244.568535,47.2294135 246.038487,47.2608973 C246.228564,47.2661865 246.404021,47.280795 246.600401,47.280795" id="Fill-32" fill="#2A2D2C"></path>
                <path d="M273.141135,42.4908259 C274.61386,44.003811 276.387331,45.1782823 278.483733,46.0253222 C280.575092,46.8630429 282.875941,47.2808958 285.378464,47.2808958 C289.825881,47.2808958 293.476938,46.1154918 296.323567,43.7859431 C299.170448,41.455387 300.893753,38.075791 301.502809,33.6380878 L292.631671,33.6380878 C292.327144,35.7056913 291.584731,37.3499007 290.398131,38.5767611 C289.211532,39.8106738 287.516965,40.4252374 285.313929,40.4252374 C283.889858,40.4252374 282.679309,40.1038509 281.687829,39.4550329 C280.693576,38.8067187 279.909316,37.9730279 279.327738,36.9663022 C278.74238,35.9507611 278.32315,34.8249007 278.061982,33.5695791 C277.804847,32.3119905 277.677036,31.089412 277.677036,29.8809382 C277.677036,28.6286389 277.804847,27.3713022 278.061982,26.1006165 C278.32315,24.8221227 278.762043,23.6630155 279.388241,22.6036489 C280.015951,21.5457935 280.824412,20.6816264 281.817153,20.0159332 C282.813927,19.3492324 284.042878,19.0165117 285.509048,19.0165117 C289.438163,19.0165117 291.703467,20.9352599 292.310253,24.7689781 L301.310462,24.7689781 C301.178618,22.6177536 300.656282,20.7468608 299.754547,19.1779606 C298.850039,17.5989855 297.668481,16.2882524 296.222226,15.2271227 C294.781013,14.1725416 293.135352,13.3874618 291.305413,12.8696165 C289.471187,12.3517711 287.56083,12.0923446 285.575096,12.0923446 C282.853505,12.0923446 280.434173,12.5449556 278.32315,13.4519406 C276.20532,14.3569107 274.412186,15.6190329 272.943242,17.2360404 C271.483626,18.8512848 270.368117,20.7720479 269.616629,22.9910254 C268.858586,25.212018 268.481456,27.6168758 268.481456,30.2043397 C268.481456,32.7074269 268.89161,35.0029731 269.711668,37.0955117 C270.532985,39.1862873 271.674964,40.9843895 273.141135,42.4908259" id="Fill-34" fill="#2A2D2C"></path>
                <g id="Group-38" transform="translate(303.267356, 0.009067)">
                    <mask id="mask-4" fill="white">
                        <use xlink:href="#path-3"></use>
                    </mask>
                    <g id="Clip-37"></g>
                    <path d="M16.4907108,19.3249269 C18.6912268,19.3249269 20.2234454,20.0067399 21.088375,21.366084 C21.9507837,22.72568 22.3833745,24.7809419 22.3833745,27.5439594 L22.3833745,46.4352411 L31.5759299,46.4352411 L31.5759299,25.8612137 C31.5759299,23.794114 31.3888772,21.902316 31.0276286,20.2057175 C30.655792,18.4937549 30.0255606,17.0517973 29.1144981,15.8634731 C28.2112504,14.6784232 26.9679299,13.7550666 25.3920993,13.0818172 C23.8165207,12.4166277 21.7977635,12.0834032 19.3386005,12.0834032 C17.6140353,12.0834032 15.8405641,12.5259394 14.0290269,13.408493 C12.2212711,14.2900392 10.7273706,15.7073135 9.56320709,17.6492337 L9.37186883,17.6492337 L9.37186883,0.242727431 L0.175027868,0.242727431 L0.175027868,46.4352411 L9.37186883,46.4352411 L9.37186883,28.9010367 C9.37186883,25.4995279 9.92697666,23.0483259 11.0543346,21.5572536 C12.1776591,20.0752486 13.9894484,19.3249269 16.4907108,19.3249269" id="Fill-36" fill="#2A2D2C" mask="url(#mask-4)"></path>
                </g>
                <g id="Group-41" transform="translate(0.000000, 7.565177)">
                    <mask id="mask-6" fill="white">
                        <use xlink:href="#path-5"></use>
                    </mask>
                    <g id="Clip-40"></g>
                    <path d="M68.9370564,92.8672584 C63.4366487,92.4524279 58.1074119,88.9637721 56.3616709,84.1389441 C52.644566,73.8641461 59.3802273,62.7538943 69.0222637,58.7894554 C74.7631677,56.4309416 81.1743858,57.6900414 86.9420116,55.4592259 C93.5007039,52.9191137 97.4759516,46.6608918 97.4759516,40.0543332 C97.4759516,31.0280564 90.3616473,23.7107197 81.5772297,23.7107197 C79.184115,23.7107197 76.9188112,24.273398 74.8834159,25.2493955 C73.181791,25.8609367 71.6097418,26.8114953 70.2610466,27.9894928 C67.8689402,30.0641486 65.9444656,32.8107945 64.3192248,36.1339716 C63.6501711,37.4955825 62.9654877,38.8536673 62.3009717,40.2243456 C59.2183839,46.6087546 56.149409,52.998201 53.0201839,59.353393 C49.5471047,66.4110514 46.6624095,73.8067197 41.9969323,80.1961661 C36.2172061,88.1285701 26.9490229,93.0954529 17.0463228,93.1241661 L14.9426103,93.14759 C-9.50154525,93.0576723 3.40458572,72.3534279 3.40458572,72.3534279 L34.4939013,15.5715302 C38.9987955,5.63222344 49.5655074,-1.20958204 60.6351441,1.09956509 C68.8715124,2.81077207 74.3386438,8.3909591 78.0171785,15.7763007 C78.0217162,15.7863756 81.1995951,22.1506349 81.1995951,22.1506349 L84.8410722,15.5715302 C88.220373,8.11642045 95.0523336,0.157570075 106.341291,0.157570075 C117.856879,0.157570075 124.089112,7.19457506 128.368131,15.7763007 C128.378214,15.7984653 132.826136,24.7156823 132.826136,24.7156823 C131.200643,24.3003481 123.588456,23.413009 114.39943,39.3367546 L95.2623267,77.7122209 C95.2623267,77.7122209 88.6640559,94.3550564 68.9370564,92.8672584" id="Fill-39" fill="#2A2D2C" mask="url(#mask-6)"></path>
                </g>
                <path d="M146.224099,83.7825476 C146.224099,83.7825476 151.440399,85.23861 153.76444,88.942615 C153.76444,88.942615 152.645653,101.003677 131.99776,100.707226 C111.349866,100.411026 109.463205,87.8968494 109.463205,87.8968494 C109.463205,87.8968494 112.987711,82.1081137 118.674415,82.4617397 C118.674415,82.4617397 115.270409,78.4038569 115.846693,74.7386399 C115.846693,74.7386399 119.812109,71.4880015 122.904277,71.7496948 C122.904277,71.7496948 121.097529,69.5188793 120.887788,66.3773007 C120.887788,66.3773007 122.443955,63.6666723 126.739613,62.9357446 C126.739613,62.9357446 127.228924,57.894812 132.416989,54.5439292 C132.416989,54.5439292 138.265285,56.5684628 137.47926,63.1657022 C137.47926,63.1657022 143.212601,64.6494703 144.208367,66.3246599 C144.208367,66.3246599 143.781574,69.2811137 141.161324,72.0562209 C141.161324,72.0562209 148.985773,74.1255875 150.673281,76.1949541 C150.673281,76.1949541 150.758236,81.9809192 146.224099,83.7825476" id="Fill-42" fill="#98BE42"></path>
            </g>
        </g>
    </g>
</svg>
